# xmcd
#
# Track frame offsets:
#	183
#	17280
#	34340
#	57800
#	60188
#	79075
#	98608
#	116038
#	131998
#	135243
#	153443
#	156505
#	175593
#	202180
#	221705
#	238305
#	241193
#	250518
#	267450
#
# Disc length: 3879 seconds
#
# Revision: 1
# Processed by: cddbd v1.5.1PL0 Copyright (c) Steve Scherf et al.
# Submitted via: dBpowerAMP V4.0
#
DISCID=020f2513
DTITLE=Poetic Lover - Amants Poetiques
DYEAR=1997
DGENRE=blues
TTITLE0=Personne ne saurait
TTITLE1=Prenons notre temps
TTITLE2=Qu'il en soit ainsi
TTITLE3=Interlude
TTITLE4=Fier d'avoir ton love
TTITLE5=Dernier pleur
TTITLE6=Cette femme
TTITLE7=(Poetic version) Say you, say me
TTITLE8=Interlude
TTITLE9=Tonight
TTITLE10=Interlude
TTITLE11=Mi-ange mi-demon
TTITLE12=Girl
TTITLE13=La reponse a leur priere
TTITLE14=Espoir
TTITLE15=Interlude
TTITLE16=La Marseillaise
TTITLE17=Let's take our time
TTITLE18=Everything's over
EXTD=
EXTT0=
EXTT1=
EXTT2=
EXTT3=
EXTT4=
EXTT5=
EXTT6=
EXTT7=
EXTT8=
EXTT9=
EXTT10=
EXTT11=
EXTT12=
EXTT13=
EXTT14=
EXTT15=
EXTT16=
EXTT17=
EXTT18=
PLAYORDER=
